<svg width="34" height="34" viewBox="0 0 34 34" fill="none" xmlns="http://www.w3.org/2000/svg">
<path d="M1.68544 12.625L2.90359 12.8686C3.71171 13.0303 4.31956 13.7006 4.40157 14.5206L4.57294 16.2344M4.57294 16.2344L5.61225 24.8953C5.72533 25.8376 6.52476 26.5469 7.47389 26.5469H17.1704C18.6761 26.5469 19.9885 25.5222 20.3537 24.0614L21.6406 18.9136C21.9809 17.5527 20.9516 16.2344 19.5488 16.2344H4.57294Z" stroke="#4B4B4B" stroke-width="1.40625" stroke-linecap="round"/>
<circle cx="8.38968" cy="30.1559" r="1.54687" fill="#4B4B4B"/>
<circle cx="17.6719" cy="30.1559" r="1.54687" fill="#4B4B4B"/>
<rect x="13.2502" y="0.750427" width="20" height="20" rx="10" fill="#6E6E6E"/>
<path d="M20.2916 15.7504V14.7561L23.3678 11.569C23.6963 11.2227 23.967 10.9194 24.1801 10.659C24.3961 10.3956 24.5574 10.1456 24.6639 9.90881C24.7705 9.67207 24.8237 9.42053 24.8237 9.15419C24.8237 8.85235 24.7527 8.59193 24.6107 8.37294C24.4686 8.151 24.2748 7.98084 24.0292 7.86247C23.7836 7.74114 23.5069 7.68047 23.1991 7.68047C22.8736 7.68047 22.5895 7.74706 22.3468 7.88022C22.1042 8.01339 21.9177 8.20131 21.7875 8.44397C21.6573 8.68663 21.5922 8.97072 21.5922 9.29624H20.2827C20.2827 8.74285 20.41 8.25901 20.6645 7.84471C20.919 7.43041 21.2682 7.10933 21.7121 6.88147C22.156 6.65064 22.6605 6.53523 23.2257 6.53523C23.7969 6.53523 24.3 6.64916 24.735 6.87703C25.1729 7.10193 25.5147 7.4097 25.7604 7.80032C26.006 8.18799 26.1288 8.62596 26.1288 9.11424C26.1288 9.4516 26.0652 9.78156 25.9379 10.1041C25.8136 10.4267 25.5961 10.7862 25.2854 11.1828C24.9747 11.5764 24.5426 12.0543 23.9892 12.6166L22.1826 14.5075V14.5741H26.2753V15.7504H20.2916Z" fill="white"/>
</svg>
