<svg width="69" height="68" viewBox="0 0 69 68" fill="none" xmlns="http://www.w3.org/2000/svg">
<rect x="0.857178" width="68" height="68" rx="20" fill="#1591EA" fill-opacity="0.1"/>
<path d="M21.5832 18.4931C24.1448 18.4931 24.1448 14.7671 21.5832 14.7671C19.0216 14.7671 19.0216 18.4931 21.5832 18.4931Z" fill="#B3E5FC"/>
<path d="M29.501 25.0137C31.8751 26.455 21.6032 20.6947 22.5147 28.5068H42.5421C43.2502 19.7075 36.1243 20.585 34.1585 20.589C33.6677 20.59 33.706 19.7559 33.227 19.4247C28.5577 16.1951 27.1269 23.5724 29.501 25.0137Z" fill="#B3E5FC"/>
<path d="M21.4545 42.4931L21.1215 40.3758L17.8572 43.411L19.2544 44.5753L21.4545 42.4931Z" fill="#2F3438"/>
<path d="M32.2955 32.2329L31.1312 31.0685L21.1215 40.3758L21.4545 42.4931L32.2955 32.2329Z" fill="#2F3438"/>
<path d="M44.4051 36.1918L40.6791 34.5616C29.9038 40.4535 27.0762 43.6894 32.2955 49.2329H39.049H51.1586C47.4488 48.8088 44.4051 46.9041 44.4051 44.5753C44.4051 42.2466 46.2728 38.1985 44.4051 36.1918Z" fill="#FDC415"/>
<path d="M44.4051 36.1918L51.8572 16.863L49.2955 15.9315L40.6791 34.5616L44.4051 36.1918Z" fill="#3F51B5"/>
<path d="M43.4736 28.5068H42.5421M22.5147 28.5068H19.2544L21.1215 40.3758M22.5147 28.5068C21.6032 20.6947 31.8751 26.455 29.501 25.0137C27.1269 23.5724 28.5577 16.1951 33.227 19.4247C33.706 19.7559 33.6677 20.59 34.1585 20.589C36.1243 20.585 43.2501 19.7075 42.5421 28.5068M22.5147 28.5068H42.5421M44.4051 36.1918L51.8572 16.863L49.2955 15.9315L40.6791 34.5616M44.4051 36.1918L40.6791 34.5616M44.4051 36.1918C46.2728 38.1985 44.4051 42.2466 44.4051 44.5753C44.4051 46.9041 47.4488 48.8088 51.1586 49.2329M40.6791 34.5616C29.9038 40.4535 27.0762 43.6894 32.2955 49.2329M51.1586 49.2329H32.2955M51.1586 49.2329H39.049H32.2955M32.2955 49.2329H22.5147L21.4545 42.4931M21.4545 42.4931L21.1215 40.3758M21.4545 42.4931L19.2544 44.5753L17.8572 43.411L21.1215 40.3758M21.4545 42.4931L32.2955 32.2329L31.1312 31.0685L21.1215 40.3758M21.5832 18.4931C24.1448 18.4931 24.1448 14.7671 21.5832 14.7671C19.0216 14.7671 19.0216 18.4931 21.5832 18.4931Z" stroke="black" stroke-width="0.8" stroke-linejoin="round"/>
</svg>
