<svg width="69" height="68" viewBox="0 0 69 68" fill="none" xmlns="http://www.w3.org/2000/svg">
<rect x="0.428589" width="68" height="68" rx="20" fill="#1591EA" fill-opacity="0.1"/>
<rect x="12.3036" y="18.7395" width="25.862" height="21.0129" fill="#F1F0F1"/>
<path d="M56.7068 34.4279H53.3314C50.5267 34.4279 50.5743 37.8983 53.3314 37.8983H56.7068V34.4279Z" fill="#D9D756"/>
<path d="M52.8084 31.0525H41.8266H38.5938V40.6557H43.6331H56.7068V37.8983H53.3314C50.5743 37.8983 50.5267 34.4279 53.3314 34.4279H56.7068V32.5263C56.6965 31.5805 56.3972 31.3 55.5658 31.0525H52.8084Z" fill="#D9566C"/>
<path d="M41.8266 22.6378H38.5938V31.0525H41.8266V22.6378Z" fill="#D95658"/>
<path d="M51.0494 19.6903H38.5938V22.6378H41.8266H49.8134H51.0494C52.8084 22.6378 52.5903 19.6316 51.0494 19.6903Z" fill="#566CD9"/>
<path d="M12.304 43.7458H56.7068H57.1703C59.0246 43.7458 58.9295 40.6557 57.1703 40.6557H56.7068H43.6331H38.5938H12.304H11.8166C9.82008 40.6557 9.82007 43.7458 11.8166 43.7458H12.304Z" fill="#566CD9"/>
<path d="M38.5938 40.6557V31.0525M38.5938 40.6557H43.6331M38.5938 40.6557H12.304M12.304 40.6557V18.7395H38.5938V19.6903M12.304 40.6557H43.6331M12.304 40.6557C12.304 40.6557 13.8132 40.6557 11.8166 40.6557M12.304 40.6557H11.8166M56.7068 40.6557V37.8983M56.7068 40.6557H43.6331M56.7068 40.6557C56.7068 40.6557 55.4111 40.6557 57.1703 40.6557M56.7068 40.6557H57.1703M56.7068 43.7458H12.304M56.7068 43.7458C56.7068 43.7458 55.316 43.7458 57.1703 43.7458M56.7068 43.7458H57.1703M12.304 43.7458C12.304 43.7458 13.8132 43.7458 11.8166 43.7458M12.304 43.7458H11.8166M38.5938 19.6903H51.0494C52.5903 19.6316 52.8084 22.6378 51.0494 22.6378M38.5938 19.6903V22.6378M51.0494 22.6378C49.2904 22.6378 49.8134 22.6378 49.8134 22.6378M51.0494 22.6378H49.8134M38.5938 22.6378H41.8266M38.5938 22.6378V31.0525M41.8266 22.6378H49.8134M41.8266 22.6378V31.0525M41.8266 31.0525H52.8084M41.8266 31.0525H38.5938M52.8084 31.0525L49.8134 22.6378M52.8084 31.0525H55.5658C56.3972 31.3 56.6965 31.5805 56.7068 32.5263V34.4279M56.7068 34.4279C56.7068 34.4279 56.1361 34.4279 53.3314 34.4279M56.7068 34.4279V37.8983M56.7068 34.4279H53.3314M53.3314 34.4279C50.5267 34.4279 50.5743 37.8983 53.3314 37.8983M53.3314 37.8983C56.0885 37.8983 56.7068 37.8983 56.7068 37.8983M53.3314 37.8983H56.7068M43.6331 34.4279H45.5347M57.1703 40.6557C58.9295 40.6557 59.0246 43.7458 57.1703 43.7458M11.8166 40.6557C9.82008 40.6557 9.82007 43.7458 11.8166 43.7458" stroke="black" stroke-width="0.8" stroke-linecap="round" stroke-linejoin="round"/>
<path d="M23.6629 44.507C23.6629 46.5024 22.0453 48.1201 20.0498 48.1201C18.0544 48.1201 16.4367 46.5024 16.4367 44.507C16.4367 42.5115 18.0544 40.8939 20.0498 40.8939C22.0453 40.8939 23.6629 42.5115 23.6629 44.507Z" fill="#D0D3D2" stroke="black" stroke-width="2.28194"/>
<path d="M52.366 44.507C52.366 46.5024 50.7484 48.1201 48.753 48.1201C46.7575 48.1201 45.1399 46.5024 45.1399 44.507C45.1399 42.5115 46.7575 40.8939 48.753 40.8939C50.7484 40.8939 52.366 42.5115 52.366 44.507Z" fill="#D0D3D2" stroke="black" stroke-width="2.28194"/>
<path d="M15.5851 23.4841H16.8296L18.028 25.7474H18.0793L19.2777 23.4841H20.5223L18.6054 26.8816V28.7395H17.502V26.8816L15.5851 23.4841ZM23.3469 27.0613V24.798H24.4401V28.7395H23.3905V28.0236H23.3495C23.2605 28.2545 23.1125 28.4401 22.9055 28.5804C22.7003 28.7207 22.4496 28.7908 22.1537 28.7908C21.8902 28.7908 21.6584 28.7309 21.4583 28.6112C21.2581 28.4914 21.1016 28.3212 20.9887 28.1005C20.8775 27.8799 20.821 27.6155 20.8193 27.3076V24.798H21.9125V27.1126C21.9142 27.3453 21.9766 27.5292 22.0998 27.6643C22.223 27.7995 22.388 27.867 22.595 27.867C22.7268 27.867 22.8499 27.8371 22.9646 27.7772C23.0792 27.7156 23.1716 27.625 23.2417 27.5052C23.3136 27.3855 23.3486 27.2375 23.3469 27.0613ZM25.3145 28.7395V24.798H26.3743V25.4857H26.4153C26.4872 25.241 26.6078 25.0563 26.7772 24.9314C26.9465 24.8048 27.1416 24.7415 27.3622 24.7415C27.417 24.7415 27.476 24.7449 27.5393 24.7518C27.6026 24.7586 27.6582 24.768 27.7061 24.78V25.75C27.6548 25.7346 27.5838 25.7209 27.4931 25.7089C27.4024 25.697 27.3195 25.691 27.2442 25.691C27.0834 25.691 26.9397 25.726 26.8131 25.7962C26.6882 25.8646 26.589 25.9604 26.5154 26.0836C26.4436 26.2068 26.4076 26.3487 26.4076 26.5096V28.7395H25.3145ZM30.5654 24.798V25.6191H28.1917V24.798H30.5654ZM28.7306 23.8536H29.8238V27.5283C29.8238 27.6292 29.8392 27.7079 29.87 27.7644C29.9008 27.8191 29.9435 27.8576 29.9983 27.8799C30.0547 27.9021 30.1197 27.9132 30.1933 27.9132C30.2446 27.9132 30.2959 27.9089 30.3473 27.9004C30.3986 27.8901 30.4379 27.8824 30.4653 27.8773L30.6372 28.6907C30.5825 28.7079 30.5055 28.7275 30.4063 28.7498C30.3071 28.7737 30.1864 28.7883 30.0445 28.7934C29.781 28.8037 29.5501 28.7686 29.3516 28.6882C29.1549 28.6078 29.0018 28.4829 28.8923 28.3135C28.7828 28.1442 28.7289 27.9303 28.7306 27.672V23.8536ZM32.4014 28.8139C32.15 28.8139 31.9258 28.7703 31.7291 28.683C31.5324 28.5941 31.3767 28.4632 31.2621 28.2904C31.1492 28.1159 31.0927 27.8987 31.0927 27.6386C31.0927 27.4197 31.1329 27.2358 31.2133 27.0869C31.2937 26.9381 31.4032 26.8183 31.5418 26.7277C31.6804 26.637 31.8377 26.5686 32.0139 26.5224C32.1919 26.4762 32.3783 26.4437 32.5734 26.4249C32.8026 26.4009 32.9874 26.3787 33.1276 26.3582C33.2679 26.3359 33.3697 26.3034 33.433 26.2606C33.4963 26.2179 33.528 26.1546 33.528 26.0708V26.0554C33.528 25.8928 33.4766 25.7671 33.374 25.6781C33.2731 25.5892 33.1293 25.5447 32.9429 25.5447C32.7461 25.5447 32.5896 25.5883 32.4733 25.6756C32.357 25.7611 32.28 25.8689 32.2423 25.9989L31.2313 25.9168C31.2826 25.6773 31.3835 25.4703 31.5341 25.2958C31.6846 25.1196 31.8788 24.9844 32.1166 24.8903C32.3561 24.7945 32.6332 24.7466 32.948 24.7466C33.167 24.7466 33.3766 24.7723 33.5767 24.8236C33.7786 24.8749 33.9573 24.9545 34.113 25.0623C34.2704 25.17 34.3944 25.3086 34.4851 25.478C34.5758 25.6456 34.6211 25.8466 34.6211 26.081V28.7395H33.5844V28.1929H33.5536C33.4903 28.3161 33.4056 28.4247 33.2996 28.5188C33.1935 28.6112 33.0661 28.6839 32.9172 28.7369C32.7684 28.7883 32.5965 28.8139 32.4014 28.8139ZM32.7145 28.0595C32.8753 28.0595 33.0173 28.0278 33.1405 27.9645C33.2636 27.8995 33.3603 27.8123 33.4304 27.7028C33.5006 27.5933 33.5356 27.4693 33.5356 27.3307V26.9124C33.5014 26.9347 33.4544 26.9552 33.3945 26.974C33.3363 26.9911 33.2705 27.0074 33.1969 27.0228C33.1234 27.0365 33.0498 27.0493 32.9762 27.0613C32.9027 27.0715 32.836 27.0809 32.7761 27.0895C32.6478 27.1083 32.5357 27.1383 32.4399 27.1793C32.3441 27.2204 32.2697 27.276 32.2167 27.3461C32.1636 27.4145 32.1371 27.5001 32.1371 27.6027C32.1371 27.7516 32.191 27.8653 32.2988 27.944C32.4083 28.021 32.5468 28.0595 32.7145 28.0595ZM15.3249 35.7395V30.4841H16.4361V32.6525H18.6917V30.4841H19.8002V35.7395H18.6917V33.5686H16.4361V35.7395H15.3249ZM22.4767 35.8165C22.0781 35.8165 21.7334 35.7318 21.4425 35.5624C21.1534 35.3914 20.9302 35.1536 20.7728 34.8491C20.6154 34.5428 20.5367 34.1879 20.5367 33.7841C20.5367 33.377 20.6154 33.0211 20.7728 32.7166C20.9302 32.4104 21.1534 32.1726 21.4425 32.0032C21.7334 31.8322 22.0781 31.7466 22.4767 31.7466C22.8753 31.7466 23.2191 31.8322 23.5083 32.0032C23.7991 32.1726 24.0232 32.4104 24.1806 32.7166C24.338 33.0211 24.4167 33.377 24.4167 33.7841C24.4167 34.1879 24.338 34.5428 24.1806 34.8491C24.0232 35.1536 23.7991 35.3914 23.5083 35.5624C23.2191 35.7318 22.8753 35.8165 22.4767 35.8165ZM22.4818 34.9697C22.6632 34.9697 22.8146 34.9183 22.936 34.8157C23.0575 34.7113 23.149 34.5694 23.2106 34.3897C23.2739 34.2101 23.3055 34.0057 23.3055 33.7764C23.3055 33.5472 23.2739 33.3428 23.2106 33.1631C23.149 32.9835 23.0575 32.8415 22.936 32.7372C22.8146 32.6328 22.6632 32.5806 22.4818 32.5806C22.2988 32.5806 22.1448 32.6328 22.0199 32.7372C21.8967 32.8415 21.8035 32.9835 21.7402 33.1631C21.6786 33.3428 21.6478 33.5472 21.6478 33.7764C21.6478 34.0057 21.6786 34.2101 21.7402 34.3897C21.8035 34.5694 21.8967 34.7113 22.0199 34.8157C22.1448 34.9183 22.2988 34.9697 22.4818 34.9697ZM25.1275 35.7395V31.798H26.1693V32.4934H26.2155C26.2976 32.2624 26.4345 32.0802 26.6261 31.9468C26.8177 31.8134 27.0469 31.7466 27.3138 31.7466C27.5841 31.7466 27.8142 31.8142 28.0041 31.9494C28.194 32.0828 28.3206 32.2641 28.3839 32.4934H28.4249C28.5053 32.2676 28.6507 32.0871 28.8612 31.9519C29.0733 31.8151 29.3239 31.7466 29.613 31.7466C29.9808 31.7466 30.2794 31.8638 30.5086 32.0982C30.7396 32.3309 30.855 32.661 30.855 33.0887V35.7395H29.7644V33.3043C29.7644 33.0853 29.7063 32.9211 29.5899 32.8116C29.4736 32.7021 29.3282 32.6473 29.1537 32.6473C28.9553 32.6473 28.8004 32.7106 28.6892 32.8372C28.578 32.9621 28.5224 33.1272 28.5224 33.3325V35.7395H27.4626V33.2812C27.4626 33.0879 27.407 32.9339 27.2958 32.8193C27.1864 32.7047 27.0418 32.6473 26.8622 32.6473C26.7407 32.6473 26.6312 32.6781 26.5337 32.7397C26.4379 32.7996 26.3618 32.8843 26.3053 32.9938C26.2489 33.1015 26.2206 33.2281 26.2206 33.3736V35.7395H25.1275ZM33.5148 35.8165C33.1094 35.8165 32.7604 35.7344 32.4678 35.5701C32.177 35.4042 31.9529 35.1698 31.7955 34.867C31.6381 34.5625 31.5594 34.2024 31.5594 33.7867C31.5594 33.3812 31.6381 33.0254 31.7955 32.7192C31.9529 32.413 32.1744 32.1743 32.4601 32.0032C32.7475 31.8322 33.0845 31.7466 33.4712 31.7466C33.7312 31.7466 33.9733 31.7886 34.1974 31.8724C34.4232 31.9545 34.6199 32.0785 34.7876 32.2445C34.9569 32.4104 35.0887 32.6191 35.1828 32.8706C35.2769 33.1204 35.3239 33.4129 35.3239 33.7482V34.0484H31.9957V33.371H34.2949C34.2949 33.2136 34.2607 33.0742 34.1922 32.9527C34.1238 32.8312 34.0289 32.7363 33.9074 32.6679C33.7877 32.5977 33.6482 32.5627 33.4891 32.5627C33.3232 32.5627 33.1761 32.6012 33.0478 32.6781C32.9212 32.7534 32.8219 32.8552 32.7501 32.9835C32.6782 33.1101 32.6415 33.2512 32.6398 33.4069V34.051C32.6398 34.246 32.6757 34.4145 32.7475 34.5565C32.8211 34.6985 32.9246 34.808 33.058 34.885C33.1915 34.962 33.3497 35.0005 33.5328 35.0005C33.6542 35.0005 33.7654 34.9834 33.8664 34.9491C33.9673 34.9149 34.0537 34.8636 34.1255 34.7952C34.1974 34.7267 34.2521 34.6429 34.2898 34.5437L35.3008 34.6104C35.2495 34.8533 35.1443 35.0655 34.9852 35.2468C34.8278 35.4264 34.6242 35.5667 34.3744 35.6677C34.1264 35.7669 33.8398 35.8165 33.5148 35.8165Z" fill="#2C2C2C"/>
</svg>
