<svg width="68" height="68" viewBox="0 0 68 68" fill="none" xmlns="http://www.w3.org/2000/svg">
<rect width="68" height="68" rx="20" fill="#1591EA" fill-opacity="0.1"/>
<circle cx="34" cy="34" r="19.2593" fill="#FF4A4D" stroke="black" stroke-width="1.48148"/>
<path d="M34.7316 39.2978V38.3816C34.7316 37.7086 34.873 37.0894 35.1557 36.5238C35.4442 35.9583 35.8627 35.503 36.4113 35.158C36.9598 34.813 37.6244 34.6405 38.4048 34.6405C39.2079 34.6405 39.8809 34.813 40.4239 35.158C40.9668 35.4973 41.3768 35.9498 41.6539 36.5153C41.9367 37.0809 42.0781 37.703 42.0781 38.3816V39.2978C42.0781 39.9708 41.9367 40.5901 41.6539 41.1557C41.3712 41.7212 40.9555 42.1765 40.4069 42.5215C39.864 42.8665 39.1966 43.039 38.4048 43.039C37.6131 43.039 36.9429 42.8665 36.3943 42.5215C35.8457 42.1765 35.43 41.7212 35.1473 41.1557C34.8701 40.5901 34.7316 39.9708 34.7316 39.2978ZM36.9457 38.3816V39.2978C36.9457 39.7446 37.0532 40.1547 37.2681 40.5279C37.483 40.9012 37.8619 41.0878 38.4048 41.0878C38.9534 41.0878 39.3295 40.904 39.5331 40.5364C39.7424 40.1631 39.847 39.7503 39.847 39.2978V38.3816C39.847 37.9292 39.748 37.5164 39.5501 37.1431C39.3521 36.7642 38.9704 36.5747 38.4048 36.5747C37.8732 36.5747 37.4971 36.7642 37.2766 37.1431C37.056 37.5164 36.9457 37.9292 36.9457 38.3816ZM25.9005 29.3554V28.4393C25.9005 27.7606 26.0447 27.1385 26.3331 26.5729C26.6216 26.0074 27.0401 25.5549 27.5887 25.2156C28.1372 24.8706 28.8018 24.6981 29.5822 24.6981C30.3797 24.6981 31.0498 24.8706 31.5928 25.2156C32.1414 25.5549 32.5542 26.0074 32.8313 26.5729C33.1084 27.1385 33.247 27.7606 33.247 28.4393V29.3554C33.247 30.0341 33.1056 30.6562 32.8228 31.2218C32.5457 31.7817 32.1329 32.2313 31.5843 32.5706C31.0357 32.9099 30.3683 33.0796 29.5822 33.0796C28.7848 33.0796 28.1118 32.9099 27.5632 32.5706C27.0203 32.2313 26.6074 31.7788 26.3247 31.2133C26.0419 30.6477 25.9005 30.0285 25.9005 29.3554ZM28.1316 28.4393V29.3554C28.1316 29.8079 28.2362 30.2207 28.4455 30.594C28.6604 30.9616 29.0393 31.1454 29.5822 31.1454C30.1252 31.1454 30.4984 30.9616 30.702 30.594C30.9113 30.2207 31.0159 29.8079 31.0159 29.3554V28.4393C31.0159 27.9868 30.9169 27.574 30.719 27.2007C30.521 26.8218 30.1421 26.6323 29.5822 26.6323C29.045 26.6323 28.6689 26.8218 28.454 27.2007C28.239 27.5796 28.1316 27.9925 28.1316 28.4393ZM26.8676 42.5554L38.812 25.1817H40.9328L28.9884 42.5554H26.8676Z" fill="white"/>
</svg>
