<svg width="270" height="18" viewBox="0 0 270 18" fill="none" xmlns="http://www.w3.org/2000/svg">
<path d="M198.264 13V12.233L201.145 9.07955C201.483 8.71023 201.761 8.3892 201.98 8.11648C202.199 7.84091 202.361 7.58239 202.466 7.34091C202.574 7.09659 202.628 6.84091 202.628 6.57386C202.628 6.26705 202.554 6.00142 202.406 5.77699C202.261 5.55256 202.062 5.37926 201.809 5.2571C201.557 5.13494 201.273 5.07386 200.957 5.07386C200.622 5.07386 200.329 5.14347 200.079 5.28267C199.832 5.41903 199.64 5.6108 199.504 5.85795C199.371 6.10511 199.304 6.39489 199.304 6.72727H198.298C198.298 6.21591 198.416 5.76705 198.652 5.38068C198.888 4.99432 199.209 4.69318 199.615 4.47727C200.024 4.26136 200.483 4.15341 200.991 4.15341C201.503 4.15341 201.956 4.26136 202.351 4.47727C202.746 4.69318 203.055 4.98437 203.28 5.35085C203.504 5.71733 203.616 6.125 203.616 6.57386C203.616 6.89489 203.558 7.20881 203.442 7.51562C203.328 7.8196 203.129 8.15909 202.845 8.53409C202.564 8.90625 202.173 9.3608 201.673 9.89773L199.713 11.9943V12.0625H203.77V13H198.264ZM211.581 13.1364C210.99 13.1364 210.471 12.9957 210.025 12.7145C209.582 12.4332 209.236 12.0398 208.986 11.5341C208.738 11.0284 208.615 10.4375 208.615 9.76136C208.615 9.07955 208.738 8.48437 208.986 7.97585C209.236 7.46733 209.582 7.07244 210.025 6.79119C210.471 6.50994 210.99 6.36932 211.581 6.36932C212.172 6.36932 212.689 6.50994 213.132 6.79119C213.578 7.07244 213.925 7.46733 214.172 7.97585C214.422 8.48437 214.547 9.07955 214.547 9.76136C214.547 10.4375 214.422 11.0284 214.172 11.5341C213.925 12.0398 213.578 12.4332 213.132 12.7145C212.689 12.9957 212.172 13.1364 211.581 13.1364ZM211.581 12.233C212.03 12.233 212.399 12.1179 212.689 11.8878C212.978 11.6577 213.193 11.3551 213.332 10.9801C213.471 10.6051 213.541 10.1989 213.541 9.76136C213.541 9.32386 213.471 8.91619 213.332 8.53835C213.193 8.16051 212.978 7.85511 212.689 7.62216C212.399 7.3892 212.03 7.27273 211.581 7.27273C211.132 7.27273 210.763 7.3892 210.473 7.62216C210.183 7.85511 209.969 8.16051 209.829 8.53835C209.69 8.91619 209.621 9.32386 209.621 9.76136C209.621 10.1989 209.69 10.6051 209.829 10.9801C209.969 11.3551 210.183 11.6577 210.473 11.8878C210.763 12.1179 211.132 12.233 211.581 12.233ZM215.226 7.39205V6.45455H220.545V7.39205H218.397V13H217.391V7.39205H215.226ZM221.602 11.3295H222.676C222.699 11.625 222.833 11.8494 223.077 12.0028C223.324 12.1562 223.645 12.233 224.04 12.233C224.443 12.233 224.789 12.1506 225.075 11.9858C225.362 11.8182 225.506 11.5483 225.506 11.1761C225.506 10.9574 225.452 10.767 225.344 10.6051C225.236 10.4403 225.084 10.3125 224.888 10.2216C224.692 10.1307 224.46 10.0852 224.193 10.0852H223.068V9.18182H224.193C224.594 9.18182 224.889 9.09091 225.08 8.90909C225.273 8.72727 225.369 8.5 225.369 8.22727C225.369 7.93466 225.266 7.70028 225.058 7.52415C224.851 7.34517 224.557 7.25568 224.176 7.25568C223.793 7.25568 223.473 7.34233 223.217 7.51562C222.962 7.68608 222.827 7.90625 222.813 8.17614H221.756C221.767 7.82386 221.875 7.51278 222.08 7.2429C222.284 6.97017 222.563 6.7571 222.915 6.60369C223.267 6.44744 223.671 6.36932 224.125 6.36932C224.585 6.36932 224.985 6.45028 225.323 6.61222C225.664 6.77131 225.926 6.98864 226.111 7.2642C226.298 7.53693 226.392 7.84659 226.392 8.19318C226.392 8.5625 226.289 8.8608 226.081 9.08807C225.874 9.31534 225.614 9.47727 225.301 9.57386V9.64205C225.548 9.65909 225.763 9.73864 225.945 9.88068C226.129 10.0199 226.273 10.2031 226.375 10.4304C226.477 10.6548 226.529 10.9034 226.529 11.1761C226.529 11.5739 226.422 11.9205 226.209 12.2159C225.996 12.5085 225.703 12.7358 225.331 12.8977C224.959 13.0568 224.534 13.1364 224.057 13.1364C223.594 13.1364 223.179 13.0611 222.813 12.9105C222.446 12.7571 222.155 12.5455 221.939 12.2756C221.726 12.0028 221.614 11.6875 221.602 11.3295ZM228.811 8.82386H230.686C231.453 8.82386 232.039 9.01847 232.445 9.40767C232.852 9.79687 233.055 10.2898 233.055 10.8864C233.055 11.2784 232.964 11.6349 232.782 11.956C232.6 12.2741 232.333 12.5284 231.981 12.7188C231.629 12.9062 231.197 13 230.686 13H227.941V6.45455H228.947V12.0625H230.686C231.083 12.0625 231.41 11.9574 231.666 11.7472C231.921 11.5369 232.049 11.267 232.049 10.9375C232.049 10.5909 231.921 10.3082 231.666 10.0895C231.41 9.87074 231.083 9.76136 230.686 9.76136H228.811V8.82386ZM234.095 13V6.45455H235.1V13H234.095ZM236.941 13V6.45455H239.617C240.322 6.45455 240.882 6.61364 241.296 6.93182C241.711 7.25 241.918 7.67045 241.918 8.19318C241.918 8.59091 241.801 8.89915 241.565 9.1179C241.329 9.33381 241.026 9.48011 240.657 9.55682C240.899 9.59091 241.133 9.67614 241.36 9.8125C241.59 9.94886 241.781 10.1364 241.931 10.375C242.082 10.6108 242.157 10.9006 242.157 11.2443C242.157 11.5795 242.072 11.8793 241.901 12.1435C241.731 12.4077 241.487 12.6165 241.168 12.7699C240.85 12.9233 240.47 13 240.026 13H236.941ZM237.896 12.0795H240.026C240.373 12.0795 240.644 11.9972 240.84 11.8324C241.036 11.6676 241.134 11.4432 241.134 11.1591C241.134 10.821 241.036 10.5554 240.84 10.3622C240.644 10.1662 240.373 10.0682 240.026 10.0682H237.896V12.0795ZM237.896 9.19886H239.617C239.887 9.19886 240.119 9.16193 240.312 9.08807C240.505 9.01136 240.653 8.90341 240.755 8.7642C240.86 8.62216 240.913 8.45455 240.913 8.26136C240.913 7.9858 240.798 7.76989 240.568 7.61364C240.338 7.45455 240.021 7.375 239.617 7.375H237.896V9.19886ZM245.606 13.1534C245.191 13.1534 244.814 13.0753 244.476 12.919C244.138 12.7599 243.87 12.5312 243.671 12.233C243.472 11.9318 243.373 11.5682 243.373 11.142C243.373 10.767 243.447 10.4631 243.594 10.2301C243.742 9.99432 243.939 9.80966 244.187 9.67614C244.434 9.54261 244.706 9.44318 245.005 9.37784C245.306 9.30966 245.608 9.25568 245.912 9.21591C246.31 9.16477 246.633 9.12642 246.88 9.10085C247.13 9.07244 247.312 9.02557 247.425 8.96023C247.542 8.89489 247.6 8.78125 247.6 8.61932V8.58523C247.6 8.16477 247.485 7.83807 247.255 7.60511C247.027 7.37216 246.682 7.25568 246.219 7.25568C245.739 7.25568 245.363 7.3608 245.09 7.57102C244.817 7.78125 244.626 8.00568 244.515 8.24432L243.56 7.90341C243.731 7.50568 243.958 7.19602 244.242 6.97443C244.529 6.75 244.841 6.59375 245.179 6.50568C245.52 6.41477 245.856 6.36932 246.185 6.36932C246.395 6.36932 246.637 6.39489 246.91 6.44602C247.185 6.49432 247.451 6.59517 247.706 6.74858C247.965 6.90199 248.179 7.13352 248.35 7.44318C248.52 7.75284 248.606 8.16761 248.606 8.6875V13H247.6V12.1136H247.549C247.481 12.2557 247.367 12.4077 247.208 12.5696C247.049 12.7315 246.837 12.8693 246.573 12.983C246.309 13.0966 245.986 13.1534 245.606 13.1534ZM245.759 12.25C246.157 12.25 246.492 12.1719 246.765 12.0156C247.04 11.8594 247.248 11.6577 247.387 11.4105C247.529 11.1634 247.6 10.9034 247.6 10.6307V9.71023C247.557 9.76136 247.464 9.80824 247.319 9.85085C247.177 9.89062 247.012 9.92614 246.824 9.95739C246.64 9.9858 246.459 10.0114 246.283 10.0341C246.11 10.054 245.969 10.071 245.861 10.0852C245.6 10.1193 245.356 10.1747 245.128 10.2514C244.904 10.3253 244.722 10.4375 244.583 10.5881C244.447 10.7358 244.378 10.9375 244.378 11.1932C244.378 11.5426 244.508 11.8068 244.766 11.9858C245.027 12.1619 245.358 12.25 245.759 12.25Z" fill="#6E6E6E"/>
<path d="M168.256 13.9102L167.723 13.722H167.723L168.256 13.9102ZM169.787 15.4414L169.599 14.9087L169.787 15.4414ZM171.576 15.1946L171.839 14.6949L171.576 15.1946ZM168.547 12.0727L168.04 12.321L168.547 12.0727ZM168.609 12.9106L168.077 12.7224L168.609 12.9106ZM168.404 9C168.404 5.44605 171.285 2.565 174.839 2.565V1.435C170.66 1.435 167.274 4.82197 167.274 9H168.404ZM169.055 11.8244C168.638 10.9724 168.404 10.0143 168.404 9H167.274C167.274 10.1902 167.549 11.3178 168.04 12.321L169.055 11.8244ZM168.789 14.0984L169.142 13.0989L168.077 12.7224L167.723 13.722L168.789 14.0984ZM169.599 14.9087C169.096 15.0866 168.611 14.6018 168.789 14.0984L167.723 13.722C167.229 15.1209 168.577 16.4685 169.976 15.9742L169.599 14.9087ZM170.52 14.5835L169.599 14.9087L169.976 15.9742L170.896 15.6489L170.52 14.5835ZM174.839 15.435C173.754 15.435 172.734 15.1673 171.839 14.6949L171.312 15.6943C172.365 16.2504 173.566 16.565 174.839 16.565V15.435ZM181.274 9C181.274 12.554 178.392 15.435 174.839 15.435V16.565C179.017 16.565 182.404 13.178 182.404 9H181.274ZM174.839 2.565C178.392 2.565 181.274 5.44605 181.274 9H182.404C182.404 4.82197 179.017 1.435 174.839 1.435V2.565ZM170.896 15.6489C171.014 15.6072 171.165 15.6165 171.312 15.6943L171.839 14.6949C171.451 14.4898 170.973 14.4233 170.52 14.5835L170.896 15.6489ZM168.04 12.321C168.11 12.4646 168.117 12.6088 168.077 12.7224L169.142 13.0989C169.296 12.6631 169.24 12.2041 169.055 11.8244L168.04 12.321Z" fill="#777777"/>
<circle cx="171.374" cy="9.03516" r="0.875" fill="#777777"/>
<circle cx="174.874" cy="9.03516" r="0.875" fill="#777777"/>
<circle cx="178.374" cy="9.03516" r="0.875" fill="#777777"/>
<path d="M8.14295 2.42372C8.53161 1.7779 9.4679 1.7779 9.85656 2.42372L11.4146 5.01261C11.5542 5.24463 11.782 5.41009 12.0458 5.47119L14.9894 6.15294C15.7237 6.32301 16.013 7.21348 15.5189 7.78269L13.5382 10.0645C13.3607 10.269 13.2737 10.5367 13.2971 10.8065L13.5584 13.8167C13.6235 14.5676 12.8661 15.118 12.172 14.8239L9.38985 13.6453C9.14051 13.5396 8.859 13.5396 8.60967 13.6453L5.82749 14.8239C5.13345 15.118 4.37597 14.5676 4.44114 13.8167L4.70239 10.8065C4.72581 10.5367 4.63881 10.269 4.4613 10.0645L2.48058 7.78269C1.98647 7.21349 2.2758 6.32301 3.01011 6.15295L5.95375 5.47119C6.21755 5.4101 6.4453 5.24463 6.58493 5.01261L8.14295 2.42372Z" fill="#FFD700"/>
<path d="M30.1429 2.42372C30.5316 1.7779 31.4679 1.7779 31.8566 2.42372L33.4146 5.01261C33.5542 5.24463 33.782 5.41009 34.0458 5.47119L36.9894 6.15294C37.7237 6.32301 38.013 7.21348 37.5189 7.78269L35.5382 10.0645C35.3607 10.269 35.2737 10.5367 35.2971 10.8065L35.5584 13.8167C35.6235 14.5676 34.8661 15.118 34.172 14.8239L31.3898 13.6453C31.1405 13.5396 30.859 13.5396 30.6097 13.6453L27.8275 14.8239C27.1335 15.118 26.376 14.5676 26.4411 13.8167L26.7024 10.8065C26.7258 10.5367 26.6388 10.269 26.4613 10.0645L24.4806 7.78269C23.9865 7.21349 24.2758 6.32301 25.0101 6.15295L27.9537 5.47119C28.2176 5.4101 28.4453 5.24463 28.5849 5.01261L30.1429 2.42372Z" fill="#FFD700"/>
<path d="M52.1429 2.42372C52.5316 1.7779 53.4679 1.7779 53.8566 2.42372L55.4146 5.01261C55.5542 5.24463 55.782 5.41009 56.0458 5.47119L58.9894 6.15294C59.7237 6.32301 60.013 7.21348 59.5189 7.78269L57.5382 10.0645C57.3607 10.269 57.2737 10.5367 57.2971 10.8065L57.5584 13.8167C57.6235 14.5676 56.8661 15.118 56.172 14.8239L53.3898 13.6453C53.1405 13.5396 52.859 13.5396 52.6097 13.6453L49.8275 14.8239C49.1335 15.118 48.376 14.5676 48.4411 13.8167L48.7024 10.8065C48.7258 10.5367 48.6388 10.269 48.4613 10.0645L46.4806 7.78269C45.9865 7.21349 46.2758 6.32301 47.0101 6.15295L49.9537 5.47119C50.2176 5.4101 50.4453 5.24463 50.5849 5.01261L52.1429 2.42372Z" fill="#FFD700"/>
<path d="M74.1429 2.42372C74.5316 1.7779 75.4679 1.7779 75.8566 2.42372L77.4146 5.01261C77.5542 5.24463 77.782 5.41009 78.0458 5.47119L80.9894 6.15294C81.7237 6.32301 82.013 7.21348 81.5189 7.78269L79.5382 10.0645C79.3607 10.269 79.2737 10.5367 79.2971 10.8065L79.5584 13.8167C79.6235 14.5676 78.8661 15.118 78.172 14.8239L75.3898 13.6453C75.1405 13.5396 74.859 13.5396 74.6097 13.6453L71.8275 14.8239C71.1335 15.118 70.376 14.5676 70.4411 13.8167L70.7024 10.8065C70.7258 10.5367 70.6388 10.269 70.4613 10.0645L68.4806 7.78269C67.9865 7.21349 68.2758 6.32301 69.0101 6.15295L71.9537 5.47119C72.2176 5.4101 72.4453 5.24463 72.5849 5.01261L74.1429 2.42372Z" fill="#FFD700"/>
<path d="M96.627 2.71506C96.7961 2.43412 97.2034 2.43412 97.3725 2.71505L98.9305 5.30395C99.149 5.66705 99.5054 5.926 99.9183 6.02162L102.862 6.70337C103.181 6.77736 103.307 7.16471 103.092 7.41231L101.112 9.69409C100.834 10.0141 100.698 10.4331 100.734 10.8553L100.995 13.8656C101.024 14.1922 100.694 14.4316 100.392 14.3037L97.6102 13.125C97.22 12.9597 96.7795 12.9597 96.3893 13.125L93.6071 14.3037C93.3052 14.4316 92.9757 14.1922 93.004 13.8656L93.2653 10.8553C93.3019 10.4331 93.1658 10.0141 92.888 9.69409L90.9072 7.41232C90.6923 7.16471 90.8182 6.77735 91.1376 6.70338L94.0812 6.02162C94.4941 5.92601 94.8505 5.66705 95.069 5.30395L96.627 2.71506Z" stroke="#6E6E6E" stroke-width="1.13"/>
</svg>
