<svg width="69" height="68" viewBox="0 0 69 68" fill="none" xmlns="http://www.w3.org/2000/svg">
<rect x="0.285706" width="68" height="68" rx="20" fill="#1591EA" fill-opacity="0.1"/>
<circle cx="34.2857" cy="34" r="19.3056" fill="#1591EA" stroke="black" stroke-width="1.38889"/>
<circle cx="34.2772" cy="34" r="15.3704" fill="#D9D9D9"/>
<path d="M26.1665 37.7963L25.1943 40.25M25.1943 40.25L22.6943 39.3704M25.1943 40.25L24.361 38.7219C19.5924 27.2869 33.3424 18.3519 41.9073 26.6386L43.5276 28.213M43.5276 25.6667V28.213M43.5276 28.213H41.3517M36.5832 32.1945C39.1757 35.5741 34.7313 38.7219 32.4165 36.1759C29.8612 33.4001 33.5382 29.4139 36.5832 32.1945ZM36.5832 32.1945L38.5739 30.0185M34.3146 46.963V49.463M34.3146 49.463C39.1702 49.1286 42.7405 47.6574 45.1943 44.8796M34.3146 49.463C13.5364 48.7674 13.7869 19.2304 34.3146 18.6296M45.1943 44.8796L43.5276 43.1204M45.1943 44.8796C47.972 42.3334 49.5154 38.8087 49.685 34.4167H47.0461" stroke="black" stroke-linecap="round" stroke-linejoin="round"/>
</svg>
