<svg width="114" height="28" viewBox="0 0 114 28" fill="none" xmlns="http://www.w3.org/2000/svg">
<path fill-rule="evenodd" clip-rule="evenodd" d="M0 14C0 6.26801 6.26801 0 14 0C21.732 0 28 6.26801 28 14C28 21.732 21.732 28 14 28C6.26801 28 0 21.732 0 14ZM14.7342 18.5953C14.7342 18.5953 15.0037 18.5659 15.1417 18.4204C15.2681 18.287 15.2637 18.0354 15.2637 18.0354C15.2637 18.0354 15.2469 16.8603 15.8027 16.6868C16.3505 16.5161 17.0539 17.8231 17.8004 18.3257C18.3642 18.7057 18.7922 18.6225 18.7922 18.6225L20.7869 18.5953C20.7869 18.5953 21.8299 18.5322 21.3354 17.7271C21.2945 17.6611 21.0469 17.1313 19.8527 16.043C18.6016 14.9037 18.7696 15.088 20.2756 13.1171C21.193 11.9169 21.5597 11.1842 21.445 10.8709C21.3362 10.5712 20.6613 10.6508 20.6613 10.6508L18.4161 10.6644C18.4161 10.6644 18.2495 10.6422 18.1261 10.7146C18.0056 10.7856 17.9274 10.9512 17.9274 10.9512C17.9274 10.9512 17.5725 11.8796 17.0984 12.6697C16.0985 14.3359 15.699 14.4241 15.5354 14.3208C15.1549 14.0792 15.2498 13.3515 15.2498 12.8346C15.2498 11.2193 15.4996 10.5461 14.7641 10.3719C14.5202 10.3138 14.3405 10.2758 13.716 10.2694C12.9148 10.2615 12.237 10.2722 11.8528 10.4565C11.5972 10.5791 11.3999 10.853 11.5205 10.8687C11.6687 10.8881 12.0047 10.9576 12.1829 11.1957C12.413 11.5032 12.405 12.1929 12.405 12.1929C12.405 12.1929 12.5372 14.0943 12.096 14.3302C11.7936 14.4922 11.3788 14.1617 10.487 12.6496C10.0305 11.8753 9.68572 11.0193 9.68572 11.0193C9.68572 11.0193 9.61926 10.8594 9.5002 10.7734C9.35632 10.6694 9.15546 10.6372 9.15546 10.6372L7.02199 10.6508C7.02199 10.6508 6.70135 10.6594 6.58376 10.7963C6.47931 10.9175 6.57572 11.1691 6.57572 11.1691C6.57572 11.1691 8.24612 15.0055 10.1378 16.9391C11.8725 18.7114 13.8416 18.5953 13.8416 18.5953H14.7342Z" fill="#6E6E6E"/>
<path fill-rule="evenodd" clip-rule="evenodd" d="M43 14C43 6.26801 49.268 0 57 0C64.732 0 71 6.26801 71 14C71 21.732 64.732 28 57 28C49.268 28 43 21.732 43 14ZM56.5807 11.3794L56.6101 11.8638L56.1204 11.8045C54.3382 11.5771 52.7811 10.806 51.4591 9.51085L50.8128 8.86824L50.6463 9.34278C50.2938 10.4006 50.519 11.5178 51.2535 12.2691C51.6452 12.6844 51.557 12.7437 50.8813 12.4965C50.6463 12.4174 50.4407 12.3581 50.4211 12.3878C50.3525 12.457 50.5876 13.3566 50.7736 13.7126C51.0282 14.2069 51.5472 14.6913 52.1152 14.978L52.5951 15.2054L52.0271 15.2153C51.4787 15.2153 51.4591 15.2252 51.5179 15.4328C51.7137 16.0754 52.4873 16.7576 53.3491 17.0541L53.9563 17.2618L53.4274 17.5781C52.644 18.0329 51.7235 18.2899 50.803 18.3097C50.3623 18.3196 50 18.3591 50 18.3888C50 18.4877 51.1947 19.0413 51.89 19.2588C53.9758 19.9014 56.4534 19.6246 58.314 18.5272C59.636 17.7462 60.958 16.194 61.575 14.6913C61.9079 13.8905 62.2409 12.4273 62.2409 11.7254C62.2409 11.2706 62.2703 11.2113 62.8187 10.6676C63.1418 10.3512 63.4454 10.0052 63.5041 9.90631C63.6021 9.71847 63.5923 9.71847 63.0929 9.88653C62.2605 10.1831 62.143 10.1436 62.5543 9.69869C62.8578 9.38233 63.2202 8.80892 63.2202 8.64085C63.2202 8.61119 63.0733 8.66063 62.9068 8.7496C62.7305 8.84847 62.3388 8.99676 62.045 9.08574L61.5162 9.25381L61.0364 8.92756C60.772 8.7496 60.3999 8.55188 60.204 8.49256C59.7046 8.35415 58.9407 8.37392 58.4903 8.5321C57.2662 8.97699 56.4926 10.1238 56.5807 11.3794Z" fill="#6E6E6E"/>
<path fill-rule="evenodd" clip-rule="evenodd" d="M114 14C114 21.732 107.732 28 100 28C92.268 28 86 21.732 86 14C86 6.26803 92.268 0 100 0C107.732 0 114 6.26803 114 14ZM95.375 12.7175C93.9726 13.3299 92.5316 13.959 91.214 14.6848C90.5259 15.1886 91.4404 15.545 92.2983 15.8792C92.4347 15.9324 92.5696 15.9849 92.6965 16.0374C92.8021 16.0699 92.9094 16.1041 93.0182 16.1387C93.9724 16.4427 95.0362 16.7817 95.9626 16.2718C97.4843 15.3977 98.9203 14.3871 100.355 13.3773C100.825 13.0464 101.295 12.7157 101.768 12.3898C101.79 12.3756 101.815 12.3594 101.843 12.3418C102.245 12.0806 103.151 11.4934 102.816 12.3026C102.024 13.1692 101.175 13.9362 100.322 14.7076C99.7465 15.2274 99.1693 15.7491 98.6058 16.3045C98.115 16.7032 97.6054 17.5051 98.1549 18.0636C99.4207 18.9496 100.706 19.8143 101.991 20.6784C102.409 20.9596 102.827 21.2407 103.244 21.5226C103.951 22.0872 105.057 21.6305 105.212 20.7483C105.281 20.3425 105.351 19.9367 105.42 19.5309C105.804 17.2881 106.187 15.0446 106.526 12.7945C106.572 12.4416 106.625 12.0886 106.677 11.7356C106.804 10.8797 106.93 10.0229 106.97 9.16247C106.868 8.30381 105.827 8.49263 105.247 8.68572C102.269 9.8189 99.3211 11.0361 96.3844 12.2747C96.0518 12.4221 95.7145 12.5693 95.375 12.7175Z" fill="#6E6E6E"/>
</svg>
